%TF.GenerationSoftware,KiCad,Pcbnew,9.0.3*%
%TF.CreationDate,2025-08-24T00:43:16+05:30*%
%TF.ProjectId,single-layer-modules,73696e67-6c65-42d6-9c61-7965722d6d6f,rev?*%
%TF.SameCoordinates,Original*%
%TF.FileFunction,Copper,L1,Top*%
%TF.FilePolarity,Positive*%
%FSLAX46Y46*%
G04 Gerber Fmt 4.6, Leading zero omitted, Abs format (unit mm)*
G04 Created by KiCad (PCBNEW 9.0.3) date 2025-08-24 00:43:17*
%MOMM*%
%LPD*%
G01*
G04 APERTURE LIST*
G04 Aperture macros list*
%AMRoundRect*
0 Rectangle with rounded corners*
0 $1 Rounding radius*
0 $2 $3 $4 $5 $6 $7 $8 $9 X,Y pos of 4 corners*
0 Add a 4 corners polygon primitive as box body*
4,1,4,$2,$3,$4,$5,$6,$7,$8,$9,$2,$3,0*
0 Add four circle primitives for the rounded corners*
1,1,$1+$1,$2,$3*
1,1,$1+$1,$4,$5*
1,1,$1+$1,$6,$7*
1,1,$1+$1,$8,$9*
0 Add four rect primitives between the rounded corners*
20,1,$1+$1,$2,$3,$4,$5,0*
20,1,$1+$1,$4,$5,$6,$7,0*
20,1,$1+$1,$6,$7,$8,$9,0*
20,1,$1+$1,$8,$9,$2,$3,0*%
%AMHorizOval*
0 Thick line with rounded ends*
0 $1 width*
0 $2 $3 position (X,Y) of the first rounded end (center of the circle)*
0 $4 $5 position (X,Y) of the second rounded end (center of the circle)*
0 Add line between two ends*
20,1,$1,$2,$3,$4,$5,0*
0 Add two circle primitives to create the rounded ends*
1,1,$1,$2,$3*
1,1,$1,$4,$5*%
G04 Aperture macros list end*
%TA.AperFunction,ComponentPad*%
%ADD10C,2.400000*%
%TD*%
%TA.AperFunction,ComponentPad*%
%ADD11HorizOval,2.400000X0.000000X0.000000X0.000000X0.000000X0*%
%TD*%
%TA.AperFunction,ComponentPad*%
%ADD12O,2.400000X2.400000*%
%TD*%
%TA.AperFunction,ComponentPad*%
%ADD13RoundRect,0.250000X-0.350000X-0.625000X0.350000X-0.625000X0.350000X0.625000X-0.350000X0.625000X0*%
%TD*%
%TA.AperFunction,ComponentPad*%
%ADD14O,1.200000X1.750000*%
%TD*%
%TA.AperFunction,ComponentPad*%
%ADD15R,2.400000X2.400000*%
%TD*%
%TA.AperFunction,ComponentPad*%
%ADD16C,1.600000*%
%TD*%
%TA.AperFunction,ComponentPad*%
%ADD17RoundRect,0.250000X0.550000X-0.550000X0.550000X0.550000X-0.550000X0.550000X-0.550000X-0.550000X0*%
%TD*%
%TA.AperFunction,ComponentPad*%
%ADD18R,2.000000X1.905000*%
%TD*%
%TA.AperFunction,ComponentPad*%
%ADD19O,2.000000X1.905000*%
%TD*%
%TA.AperFunction,ComponentPad*%
%ADD20C,1.700000*%
%TD*%
%TA.AperFunction,ComponentPad*%
%ADD21R,1.700000X1.700000*%
%TD*%
%TA.AperFunction,ComponentPad*%
%ADD22O,1.600000X1.600000*%
%TD*%
%TA.AperFunction,ComponentPad*%
%ADD23R,1.600000X1.600000*%
%TD*%
%TA.AperFunction,ComponentPad*%
%ADD24O,1.600000X2.400000*%
%TD*%
%TA.AperFunction,ComponentPad*%
%ADD25RoundRect,0.250000X0.550000X-0.950000X0.550000X0.950000X-0.550000X0.950000X-0.550000X-0.950000X0*%
%TD*%
%TA.AperFunction,ComponentPad*%
%ADD26C,3.000000*%
%TD*%
%TA.AperFunction,ComponentPad*%
%ADD27RoundRect,0.750000X-0.750000X0.750000X-0.750000X-0.750000X0.750000X-0.750000X0.750000X0.750000X0*%
%TD*%
%TA.AperFunction,ComponentPad*%
%ADD28R,1.800000X1.100000*%
%TD*%
%TA.AperFunction,ComponentPad*%
%ADD29RoundRect,0.275000X-0.625000X0.275000X-0.625000X-0.275000X0.625000X-0.275000X0.625000X0.275000X0*%
%TD*%
%TA.AperFunction,Conductor*%
%ADD30C,1.500000*%
%TD*%
G04 APERTURE END LIST*
D10*
%TO.P,R24,1*%
%TO.N,+5V*%
X118740000Y-104250000D03*
D11*
%TO.P,R24,2*%
X107963693Y-93473693D03*
%TD*%
D10*
%TO.P,R23,1*%
%TO.N,Net-(R23-Pad1)*%
X105260000Y-86500000D03*
D12*
%TO.P,R23,2*%
%TO.N,PB_3*%
X120500000Y-86500000D03*
%TD*%
D13*
%TO.P,JP1,1,A*%
%TO.N,VCC_5V*%
X102000000Y-40000000D03*
D14*
%TO.P,JP1,2,C*%
%TO.N,SIM800L*%
X104000000Y-40000000D03*
%TO.P,JP1,3,B*%
%TO.N,+3.3V*%
X106000000Y-40000000D03*
%TD*%
D12*
%TO.P,R2,2*%
%TO.N,+3.3V*%
X130870000Y-58250000D03*
D10*
%TO.P,R2,1*%
%TO.N,PB_12*%
X115630000Y-58250000D03*
%TD*%
D12*
%TO.P,R3,2*%
%TO.N,+3.3V*%
X130990000Y-75250000D03*
D10*
%TO.P,R3,1*%
%TO.N,PC_15*%
X115750000Y-75250000D03*
%TD*%
D15*
%TO.P,C1,1*%
%TO.N,+5V*%
X140250000Y-50500000D03*
D10*
%TO.P,C1,2*%
%TO.N,GND*%
X147750000Y-50500000D03*
%TD*%
D12*
%TO.P,R1,2*%
%TO.N,+3.3V*%
X130870000Y-62500000D03*
D10*
%TO.P,R1,1*%
%TO.N,PB_13*%
X115630000Y-62500000D03*
%TD*%
D12*
%TO.P,R4,2*%
%TO.N,+3.3V*%
X130990000Y-71000000D03*
D10*
%TO.P,R4,1*%
%TO.N,PC_14*%
X115750000Y-71000000D03*
%TD*%
D12*
%TO.P,R5,2*%
%TO.N,+3.3V*%
X130990000Y-66750000D03*
D10*
%TO.P,R5,1*%
%TO.N,PC_13*%
X115750000Y-66750000D03*
%TD*%
D12*
%TO.P,R8,2*%
%TO.N,Net-(Q2-C)*%
X102870000Y-101500000D03*
D10*
%TO.P,R8,1*%
%TO.N,Net-(Q1-G)*%
X87630000Y-101500000D03*
%TD*%
D12*
%TO.P,R7,2*%
%TO.N,Net-(R23-Pad1)*%
X102870000Y-97250000D03*
D10*
%TO.P,R7,1*%
%TO.N,Net-(Q2-B)*%
X87630000Y-97250000D03*
%TD*%
%TO.P,R6,1*%
%TO.N,Net-(Q2-C)*%
X87630000Y-93100000D03*
D12*
%TO.P,R6,2*%
%TO.N,+5V*%
X102870000Y-93100000D03*
%TD*%
D16*
%TO.P,SW1,10*%
%TO.N,GND*%
X124250000Y-36750000D03*
%TO.P,SW1,9*%
X121710000Y-36750000D03*
%TO.P,SW1,8*%
X119170000Y-36750000D03*
%TO.P,SW1,7*%
X116630000Y-36750000D03*
%TO.P,SW1,6*%
X114090000Y-36750000D03*
%TO.P,SW1,5*%
%TO.N,PC_13*%
X114090000Y-44370000D03*
%TO.P,SW1,4*%
%TO.N,PC_14*%
X116630000Y-44370000D03*
%TO.P,SW1,3*%
%TO.N,PC_15*%
X119170000Y-44370000D03*
%TO.P,SW1,2*%
%TO.N,PB_12*%
X121710000Y-44370000D03*
D17*
%TO.P,SW1,1*%
%TO.N,PB_13*%
X124250000Y-44370000D03*
%TD*%
D18*
%TO.P,Q1,1,G*%
%TO.N,Net-(Q1-G)*%
X84195000Y-100290000D03*
D19*
%TO.P,Q1,2,D*%
%TO.N,+5V*%
X84195000Y-97750000D03*
%TO.P,Q1,3,S*%
%TO.N,VCC_5V*%
X84195000Y-95210000D03*
%TD*%
D20*
%TO.P,J3,7,Pin_7*%
%TO.N,unconnected-(J3-Pin_7-Pad7)*%
X97620000Y-47000000D03*
%TO.P,J3,6,Pin_6*%
%TO.N,GND*%
X95080000Y-47000000D03*
%TO.P,J3,5,Pin_5*%
%TO.N,Net-(J3-Pin_5)*%
X92540000Y-47000000D03*
%TO.P,J3,4,Pin_4*%
%TO.N,Net-(J3-Pin_4)*%
X90000000Y-47000000D03*
%TO.P,J3,3,Pin_3*%
%TO.N,SIM800L*%
X87460000Y-47000000D03*
%TO.P,J3,2,Pin_2*%
%TO.N,GND*%
X84920000Y-47000000D03*
D21*
%TO.P,J3,1,Pin_1*%
%TO.N,VCC_5V*%
X82380000Y-47000000D03*
%TD*%
D12*
%TO.P,R21,2*%
%TO.N,PA_2*%
X99750000Y-60500000D03*
D10*
%TO.P,R21,1*%
%TO.N,Net-(J3-Pin_4)*%
X84510000Y-60500000D03*
%TD*%
D12*
%TO.P,R22,2*%
%TO.N,PA_3*%
X99750000Y-64750000D03*
D10*
%TO.P,R22,1*%
%TO.N,Net-(J3-Pin_5)*%
X84510000Y-64750000D03*
%TD*%
D22*
%TO.P,D2,2,A*%
%TO.N,Net-(D2-A)*%
X172500000Y-57819466D03*
D23*
%TO.P,D2,1,K*%
%TO.N,Net-(D2-K)*%
X164880000Y-57819466D03*
%TD*%
D10*
%TO.P,C2,2*%
%TO.N,Net-(C2-Pad2)*%
X186750000Y-98500000D03*
D15*
%TO.P,C2,1*%
%TO.N,SOLAR_REG_IN*%
X194250000Y-98500000D03*
%TD*%
D10*
%TO.P,C3,2*%
%TO.N,GND*%
X169000000Y-98000000D03*
D15*
%TO.P,C3,1*%
%TO.N,Net-(C2-Pad2)*%
X176500000Y-98000000D03*
%TD*%
D22*
%TO.P,D1,2,A*%
%TO.N,Net-(D1-A)*%
X172000000Y-80819466D03*
D23*
%TO.P,D1,1,K*%
%TO.N,Net-(D1-K)*%
X164380000Y-80819466D03*
%TD*%
D12*
%TO.P,R12,2*%
%TO.N,Net-(R12-Pad2)*%
X171220000Y-66879466D03*
D10*
%TO.P,R12,1*%
%TO.N,Net-(U1A-+)*%
X186460000Y-66879466D03*
%TD*%
D12*
%TO.P,R16,2*%
%TO.N,Net-(R15-Pad2)*%
X192940000Y-56699466D03*
D10*
%TO.P,R16,1*%
%TO.N,Net-(R13-Pad2)*%
X192940000Y-71939466D03*
%TD*%
D12*
%TO.P,R13,2*%
%TO.N,Net-(R13-Pad2)*%
X193310000Y-84819466D03*
D10*
%TO.P,R13,1*%
%TO.N,Net-(U1A--)*%
X178070000Y-84819466D03*
%TD*%
%TO.P,R14,1*%
%TO.N,Net-(U2A--)*%
X186580000Y-62379466D03*
D12*
%TO.P,R14,2*%
%TO.N,Net-(R12-Pad2)*%
X171340000Y-62379466D03*
%TD*%
%TO.P,R11,2*%
%TO.N,Net-(D2-K)*%
X160690000Y-58439466D03*
D10*
%TO.P,R11,1*%
%TO.N,GND*%
X160690000Y-43199466D03*
%TD*%
D12*
%TO.P,R10,2*%
%TO.N,Net-(D1-K)*%
X160690000Y-76689466D03*
D10*
%TO.P,R10,1*%
%TO.N,Net-(D2-K)*%
X160690000Y-61449466D03*
%TD*%
D12*
%TO.P,R15,2*%
%TO.N,Net-(R15-Pad2)*%
X192680000Y-45819466D03*
D10*
%TO.P,R15,1*%
%TO.N,Net-(U2A-+)*%
X177440000Y-45819466D03*
%TD*%
D24*
%TO.P,U1,8,V+*%
%TO.N,SOLAR_REG_IN*%
X175130000Y-73009466D03*
%TO.P,U1,7*%
%TO.N,unconnected-(U1-Pad7)*%
X177670000Y-73009466D03*
%TO.P,U1,6,-*%
%TO.N,unconnected-(U1B---Pad6)*%
X180210000Y-73009466D03*
%TO.P,U1,5,+*%
%TO.N,unconnected-(U1B-+-Pad5)*%
X182750000Y-73009466D03*
%TO.P,U1,4,V-*%
%TO.N,Net-(U1C-V-)*%
X182750000Y-80629466D03*
%TO.P,U1,3,+*%
%TO.N,Net-(U1A-+)*%
X180210000Y-80629466D03*
%TO.P,U1,2,-*%
%TO.N,Net-(U1A--)*%
X177670000Y-80629466D03*
D25*
%TO.P,U1,1*%
%TO.N,Net-(D1-A)*%
X175130000Y-80629466D03*
%TD*%
D12*
%TO.P,R18,2*%
%TO.N,GND*%
X197440000Y-47199466D03*
D10*
%TO.P,R18,1*%
%TO.N,Net-(R15-Pad2)*%
X197440000Y-62439466D03*
%TD*%
D12*
%TO.P,R17,2*%
%TO.N,Net-(R13-Pad2)*%
X197190000Y-71949466D03*
D10*
%TO.P,R17,1*%
%TO.N,SOLAR_REG_IN*%
X197190000Y-87189466D03*
%TD*%
D24*
%TO.P,U2,8,V+*%
%TO.N,Net-(U1C-V-)*%
X175650000Y-50069466D03*
%TO.P,U2,7*%
%TO.N,N/C*%
X178190000Y-50069466D03*
%TO.P,U2,6*%
X180730000Y-50069466D03*
%TO.P,U2,5*%
X183270000Y-50069466D03*
%TO.P,U2,4,V-*%
%TO.N,GND*%
X183270000Y-57689466D03*
%TO.P,U2,3,+*%
%TO.N,Net-(U2A-+)*%
X180730000Y-57689466D03*
%TO.P,U2,2,-*%
%TO.N,Net-(U2A--)*%
X178190000Y-57689466D03*
D25*
%TO.P,U2,1*%
%TO.N,Net-(D2-A)*%
X175650000Y-57689466D03*
%TD*%
D26*
%TO.P,J12,2,Pin_2*%
%TO.N,GND*%
X204750000Y-93000000D03*
D27*
%TO.P,J12,1,Pin_1*%
%TO.N,SOLAR_REG_IN*%
X204750000Y-88000000D03*
%TD*%
D10*
%TO.P,R20,1*%
%TO.N,GND*%
X85010000Y-74000000D03*
D12*
%TO.P,R20,2*%
%TO.N,PA_6*%
X100250000Y-74000000D03*
%TD*%
D10*
%TO.P,R19,1*%
%TO.N,PA_6*%
X100250000Y-69750000D03*
D12*
%TO.P,R19,2*%
%TO.N,SOLAR_REG_IN*%
X85010000Y-69750000D03*
%TD*%
D10*
%TO.P,R9,1*%
%TO.N,Net-(D1-K)*%
X160690000Y-79699466D03*
D12*
%TO.P,R9,2*%
%TO.N,VCC_IN*%
X160690000Y-94939466D03*
%TD*%
D21*
%TO.P,J11,1,Pin_1*%
%TO.N,GND*%
X152440000Y-63680000D03*
%TD*%
%TO.P,J10,1,Pin_1*%
%TO.N,+5V*%
X135940000Y-63930000D03*
%TD*%
%TO.P,J9,1,Pin_1*%
%TO.N,GND*%
X152440000Y-92680000D03*
%TD*%
%TO.P,J8,1,Pin_1*%
%TO.N,VCC_IN*%
X136190000Y-92680000D03*
%TD*%
%TO.P,J1,1,Pin_1*%
%TO.N,+3.3V*%
X127040000Y-47240000D03*
D20*
%TO.P,J1,2,Pin_2*%
%TO.N,GND*%
X127040000Y-49780000D03*
%TO.P,J1,3,Pin_3*%
%TO.N,+5V*%
X127040000Y-52320000D03*
%TO.P,J1,4,Pin_4*%
%TO.N,PB_9*%
X127040000Y-54860000D03*
%TO.P,J1,5,Pin_5*%
%TO.N,PB_8*%
X127040000Y-57400000D03*
%TO.P,J1,6,Pin_6*%
%TO.N,PB_7*%
X127040000Y-59940000D03*
%TO.P,J1,7,Pin_7*%
%TO.N,PB_6*%
X127040000Y-62480000D03*
%TO.P,J1,8,Pin_8*%
%TO.N,PB_5*%
X127040000Y-65020000D03*
%TO.P,J1,9,Pin_9*%
%TO.N,PB_4*%
X127040000Y-67560000D03*
%TO.P,J1,10,Pin_10*%
%TO.N,PB_3*%
X127040000Y-70100000D03*
%TO.P,J1,11,Pin_11*%
%TO.N,PA_15*%
X127040000Y-72640000D03*
%TO.P,J1,12,Pin_12*%
%TO.N,PA_12*%
X127040000Y-75180000D03*
%TO.P,J1,13,Pin_13*%
%TO.N,PA_11*%
X127040000Y-77720000D03*
%TO.P,J1,14,Pin_14*%
%TO.N,PA_10*%
X127040000Y-80260000D03*
%TO.P,J1,15,Pin_15*%
%TO.N,PA_9*%
X127040000Y-82800000D03*
%TO.P,J1,16,Pin_16*%
%TO.N,PA_8*%
X127040000Y-85340000D03*
%TO.P,J1,17,Pin_17*%
%TO.N,PB_15*%
X127040000Y-87880000D03*
%TO.P,J1,18,Pin_18*%
%TO.N,PB_14*%
X127040000Y-90420000D03*
%TO.P,J1,19,Pin_19*%
%TO.N,PB_13*%
X127040000Y-92960000D03*
%TO.P,J1,20,Pin_20*%
%TO.N,PB_12*%
X127040000Y-95500000D03*
%TD*%
D21*
%TO.P,J7,1,Pin_1*%
%TO.N,VCC_5V*%
X90750000Y-88040000D03*
D20*
%TO.P,J7,2,Pin_2*%
%TO.N,PA_4*%
X90750000Y-85500000D03*
%TO.P,J7,3,Pin_3*%
%TO.N,GND*%
X90750000Y-82960000D03*
%TD*%
D21*
%TO.P,J5,1,Pin_1*%
%TO.N,VCC_5V*%
X100225000Y-88275000D03*
D20*
%TO.P,J5,2,Pin_2*%
%TO.N,PB_1*%
X100225000Y-85735000D03*
%TO.P,J5,3,Pin_3*%
%TO.N,GND*%
X100225000Y-83195000D03*
%TD*%
D21*
%TO.P,J4,1,Pin_1*%
%TO.N,VCC_5V*%
X96000000Y-88080000D03*
D20*
%TO.P,J4,2,Pin_2*%
%TO.N,PB_0*%
X96000000Y-85540000D03*
%TO.P,J4,3,Pin_3*%
%TO.N,GND*%
X96000000Y-83000000D03*
%TD*%
D21*
%TO.P,J8,1,Pin_1*%
%TO.N,VCC_5V*%
X81775000Y-88025000D03*
D20*
%TO.P,J8,2,Pin_2*%
%TO.N,unconnected-(J8-Pin_2-Pad2)*%
X81775000Y-85485000D03*
%TO.P,J8,3,Pin_3*%
%TO.N,GND*%
X81775000Y-82945000D03*
%TD*%
D28*
%TO.P,Q2,1,E*%
%TO.N,GND*%
X111600000Y-100750000D03*
D29*
%TO.P,Q2,2,B*%
%TO.N,Net-(Q2-B)*%
X113670000Y-102020000D03*
%TO.P,Q2,3,C*%
%TO.N,Net-(Q2-C)*%
X111600000Y-103290000D03*
%TD*%
D21*
%TO.P,J6,1,Pin_1*%
%TO.N,VCC_5V*%
X85975000Y-88025000D03*
D20*
%TO.P,J6,2,Pin_2*%
%TO.N,PA_1*%
X85975000Y-85485000D03*
%TO.P,J6,3,Pin_3*%
%TO.N,GND*%
X85975000Y-82945000D03*
%TD*%
D21*
%TO.P,J2,1,Pin_1*%
%TO.N,VCC_RTC*%
X111380000Y-47030000D03*
D20*
%TO.P,J2,2,Pin_2*%
%TO.N,PC_13*%
X111380000Y-49570000D03*
%TO.P,J2,3,Pin_3*%
%TO.N,PC_14*%
X111380000Y-52110000D03*
%TO.P,J2,4,Pin_4*%
%TO.N,PC_15*%
X111380000Y-54650000D03*
%TO.P,J2,5,Pin_5*%
%TO.N,PA_0*%
X111380000Y-57190000D03*
%TO.P,J2,6,Pin_6*%
%TO.N,PA_1*%
X111380000Y-59730000D03*
%TO.P,J2,7,Pin_7*%
%TO.N,PA_2*%
X111380000Y-62270000D03*
%TO.P,J2,8,Pin_8*%
%TO.N,PA_3*%
X111380000Y-64810000D03*
%TO.P,J2,9,Pin_9*%
%TO.N,PA_4*%
X111380000Y-67350000D03*
%TO.P,J2,10,Pin_10*%
%TO.N,PA_5*%
X111380000Y-69890000D03*
%TO.P,J2,11,Pin_11*%
%TO.N,PA_6*%
X111380000Y-72430000D03*
%TO.P,J2,12,Pin_12*%
%TO.N,PA_7*%
X111380000Y-74970000D03*
%TO.P,J2,13,Pin_13*%
%TO.N,PB_0*%
X111380000Y-77510000D03*
%TO.P,J2,14,Pin_14*%
%TO.N,PB_1*%
X111380000Y-80050000D03*
%TO.P,J2,15,Pin_15*%
%TO.N,PB_10*%
X111380000Y-82590000D03*
%TO.P,J2,16,Pin_16*%
%TO.N,PB_11*%
X111380000Y-85130000D03*
%TO.P,J2,17,Pin_17*%
%TO.N,RESET*%
X111380000Y-87670000D03*
%TO.P,J2,18,Pin_18*%
%TO.N,+3.3V*%
X111380000Y-90210000D03*
%TO.P,J2,19,Pin_19*%
%TO.N,GND*%
X111380000Y-92750000D03*
%TO.P,J2,20,Pin_20*%
X111380000Y-95290000D03*
%TD*%
D30*
%TO.N,+5V*%
X82000000Y-97750000D02*
X84195000Y-97750000D01*
X81000000Y-98750000D02*
X82000000Y-97750000D01*
X81000000Y-103250000D02*
X81000000Y-98750000D01*
X82500000Y-104750000D02*
X81000000Y-103250000D01*
X91250000Y-104750000D02*
X82500000Y-104750000D01*
X92750000Y-103250000D02*
X91250000Y-104750000D01*
X92750000Y-98000000D02*
X92750000Y-103250000D01*
X97650000Y-93100000D02*
X92750000Y-98000000D01*
X102870000Y-93100000D02*
X97650000Y-93100000D01*
X120250000Y-104250000D02*
X118750000Y-104250000D01*
X137500000Y-102000000D02*
X122500000Y-102000000D01*
X139500000Y-100000000D02*
X137500000Y-102000000D01*
X122500000Y-102000000D02*
X120250000Y-104250000D01*
X139500000Y-67490000D02*
X139500000Y-100000000D01*
X135940000Y-63930000D02*
X139500000Y-67490000D01*
%TO.N,Net-(R23-Pad1)*%
X105260000Y-95490000D02*
X105260000Y-86500000D01*
X103500000Y-97250000D02*
X105260000Y-95490000D01*
X102870000Y-97250000D02*
X103500000Y-97250000D01*
%TO.N,PB_3*%
X120500000Y-75437919D02*
X120500000Y-86500000D01*
X125837919Y-70100000D02*
X120500000Y-75437919D01*
X127040000Y-70100000D02*
X125837919Y-70100000D01*
%TO.N,+3.3V*%
X130990000Y-97010000D02*
X130990000Y-75250000D01*
X125000000Y-100000000D02*
X128000000Y-100000000D01*
X128000000Y-100000000D02*
X130990000Y-97010000D01*
X115210000Y-90210000D02*
X125000000Y-100000000D01*
X111380000Y-90210000D02*
X115210000Y-90210000D01*
X127740000Y-47240000D02*
X127040000Y-47240000D01*
X130870000Y-58250000D02*
X130870000Y-50370000D01*
X130870000Y-50370000D02*
X127740000Y-47240000D01*
%TO.N,PC_15*%
X115750000Y-75250000D02*
X120250000Y-70750000D01*
X120250000Y-70750000D02*
X120250000Y-45450000D01*
X120250000Y-45450000D02*
X119170000Y-44370000D01*
%TO.N,PC_14*%
X118000000Y-45740000D02*
X116630000Y-44370000D01*
X118000000Y-68750000D02*
X118000000Y-45740000D01*
X115750000Y-71000000D02*
X118000000Y-68750000D01*
%TO.N,PC_13*%
X113479000Y-44981000D02*
X114090000Y-44370000D01*
X113479000Y-64479000D02*
X113479000Y-44981000D01*
X115750000Y-66750000D02*
X113479000Y-64479000D01*
%TD*%
M02*
