M48
; DRILL file {KiCad 9.0.3} date 2025-08-24T00:43:14+0530
; FORMAT={-:-/ absolute / metric / decimal}
; #@! TF.CreationDate,2025-08-24T00:43:14+05:30
; #@! TF.GenerationSoftware,Kicad,Pcbnew,9.0.3
; #@! TF.FileFunction,Plated,1,2,PTH
FMAT,2
METRIC
; #@! TA.AperFunction,Plated,PTH,ComponentDrill
T1C0.750
; #@! TA.AperFunction,Plated,PTH,ComponentDrill
T2C0.800
; #@! TA.AperFunction,Plated,PTH,ComponentDrill
T3C1.000
; #@! TA.AperFunction,Plated,PTH,ComponentDrill
T4C1.100
; #@! TA.AperFunction,Plated,PTH,ComponentDrill
T5C1.200
; #@! TA.AperFunction,Plated,PTH,ComponentDrill
T6C1.800
%
G90
G05
T1
X102.0Y-40.0
X104.0Y-40.0
X106.0Y-40.0
X112.0Y-100.75
X112.0Y-103.29
X113.27Y-102.02
T2
X114.09Y-36.75
X114.09Y-44.37
X116.63Y-36.75
X116.63Y-44.37
X119.17Y-36.75
X119.17Y-44.37
X121.71Y-36.75
X121.71Y-44.37
X124.25Y-36.75
X124.25Y-44.37
X164.38Y-80.819
X164.88Y-57.819
X172.0Y-80.819
X172.5Y-57.819
X175.13Y-73.009
X175.13Y-80.629
X175.65Y-50.069
X175.65Y-57.689
X177.67Y-73.009
X177.67Y-80.629
X178.19Y-50.069
X178.19Y-57.689
X180.21Y-73.009
X180.21Y-80.629
X180.73Y-50.069
X180.73Y-57.689
X182.75Y-73.009
X182.75Y-80.629
X183.27Y-50.069
X183.27Y-57.689
T3
X81.775Y-82.945
X81.775Y-85.485
X81.775Y-88.025
X82.38Y-47.0
X84.92Y-47.0
X85.975Y-82.945
X85.975Y-85.485
X85.975Y-88.025
X87.46Y-47.0
X90.0Y-47.0
X90.75Y-82.96
X90.75Y-85.5
X90.75Y-88.04
X92.54Y-47.0
X95.08Y-47.0
X96.0Y-83.0
X96.0Y-85.54
X96.0Y-88.08
X97.62Y-47.0
X100.225Y-83.195
X100.225Y-85.735
X100.225Y-88.275
X111.38Y-47.03
X111.38Y-49.57
X111.38Y-52.11
X111.38Y-54.65
X111.38Y-57.19
X111.38Y-59.73
X111.38Y-62.27
X111.38Y-64.81
X111.38Y-67.35
X111.38Y-69.89
X111.38Y-72.43
X111.38Y-74.97
X111.38Y-77.51
X111.38Y-80.05
X111.38Y-82.59
X111.38Y-85.13
X111.38Y-87.67
X111.38Y-90.21
X111.38Y-92.75
X111.38Y-95.29
X127.04Y-47.24
X127.04Y-49.78
X127.04Y-52.32
X127.04Y-54.86
X127.04Y-57.4
X127.04Y-59.94
X127.04Y-62.48
X127.04Y-65.02
X127.04Y-67.56
X127.04Y-70.1
X127.04Y-72.64
X127.04Y-75.18
X127.04Y-77.72
X127.04Y-80.26
X127.04Y-82.8
X127.04Y-85.34
X127.04Y-87.88
X127.04Y-90.42
X127.04Y-92.96
X127.04Y-95.5
X135.94Y-63.93
X136.19Y-92.68
X152.44Y-63.68
X152.44Y-92.68
T4
X84.195Y-95.21
X84.195Y-97.75
X84.195Y-100.29
T5
X84.51Y-60.5
X84.51Y-64.75
X85.01Y-69.75
X85.01Y-74.0
X87.63Y-93.1
X87.63Y-97.25
X87.63Y-101.5
X99.75Y-60.5
X99.75Y-64.75
X100.25Y-69.75
X100.25Y-74.0
X102.87Y-93.1
X102.87Y-97.25
X102.87Y-101.5
X105.26Y-86.5
X107.964Y-93.474
X115.63Y-58.25
X115.63Y-62.5
X115.75Y-66.75
X115.75Y-71.0
X115.75Y-75.25
X118.74Y-104.25
X120.5Y-86.5
X130.87Y-58.25
X130.87Y-62.5
X130.99Y-66.75
X130.99Y-71.0
X130.99Y-75.25
X140.25Y-50.5
X147.75Y-50.5
X160.69Y-43.199
X160.69Y-58.439
X160.69Y-61.449
X160.69Y-76.689
X160.69Y-79.699
X160.69Y-94.939
X169.0Y-98.0
X171.22Y-66.879
X171.34Y-62.379
X176.5Y-98.0
X177.44Y-45.819
X178.07Y-84.819
X186.46Y-66.879
X186.58Y-62.379
X186.75Y-98.5
X192.68Y-45.819
X192.94Y-56.699
X192.94Y-71.939
X193.31Y-84.819
X194.25Y-98.5
X197.19Y-71.949
X197.19Y-87.189
X197.44Y-47.199
X197.44Y-62.439
T6
X204.75Y-88.0
X204.75Y-93.0
M30
